<?xml version="1.0" standalone="no"?>
<svg xmlns="http://www.w3.org/2000/svg" viewBox="0 0 109.496 29" width="109.496" height="29"><g fill="#d6af69" color="#d6af69" transform="translate(0, 0) scale(0.29)"><svg width="100.0" height="100.0" x="0.0" y="0.0" viewBox="0 0 100 100"><g><path fill-rule="evenodd" clip-rule="evenodd" d="M47.094,0c1.942,0,3.883,0,5.825,0c10.356,0.849,19.129,4.168,25.128,8.82   C61.246,8.883,54.905,19.405,54.25,35.612c-15.567-1.059-23.271,7.274-25.461,20.801c-0.311,1.919-0.895,4.478-0.499,5.991   c0.271,1.034,2.267,2.434,3.328,3.495c7.606,7.605,16.56,16.241,23.963,23.131c-0.032-16.92,8.874-29.091,25.96-26.793   c0.058-1.493-0.018-3.058,0.167-4.659c1.243-10.834,6.325-19.423,16.308-21.633c5.259,17.274-0.753,34.767-8.485,44.765   c-8.285,10.709-20.7,18.117-37.942,19.304c-1.054,0-2.109,0-3.162,0c-14.57-0.865-25.623-6.485-33.449-14.312   C7.138,77.863,1.101,67.272,0,52.919c0-1.942,0-3.882,0-5.825c0.867-13.358,7.115-25.247,14.644-32.617   C22.666,6.625,33.348,1.112,47.094,0z"></path></g></svg></g><line x1="41" y1="1" x2="41" y2="28" stroke="#800707" stroke-linecap="round"></line><path fill="#800707" fill-rule="nonzero" d="M2.86 22.27L2.86 22.27Q2.18 22.27 1.61 21.67Q1.03 21.07 0.67 19.96Q0.30 18.84 0.15 17.21Q0 15.59 0.16 13.50L0.16 13.50Q0.26 12.12 0.54 10.68Q0.82 9.23 1.17 7.89Q1.52 6.54 1.92 5.34Q2.32 4.15 2.66 3.22Q3 2.30 3.22 1.73Q3.45 1.17 3.49 1.08L3.49 1.08Q3.56 0.96 3.76 0.83Q3.96 0.70 4.23 0.61Q4.50 0.52 4.82 0.46Q5.13 0.40 5.41 0.40L5.41 0.40Q5.65 0.40 5.86 0.42L5.86 0.42Q6.05 0.45 6.23 0.49Q6.42 0.54 6.56 0.63L6.56 0.63Q6.30 0.80 6.06 1.14Q5.81 1.48 5.60 1.85L5.60 1.85Q5.34 2.27 5.13 2.77L5.13 2.77Q4.66 3.75 4.15 5.16Q3.63 6.56 3.18 8.14Q2.72 9.73 2.38 11.36Q2.04 12.98 1.92 14.41L1.92 14.41Q1.73 17.30 2.13 18.71Q2.53 20.13 3.26 20.13L3.26 20.13Q3.61 20.13 4.01 19.69Q4.41 19.24 4.82 18.54Q5.23 17.84 5.63 16.97Q6.02 16.10 6.38 15.26L6.38 15.26Q6.59 14.72 6.83 14.05Q7.08 13.38 7.32 12.68Q7.57 11.98 7.80 11.29Q8.04 10.59 8.23 10.03L8.23 10.03Q8.23 9.33 8.25 8.54Q8.27 7.76 8.36 6.95Q8.44 6.14 8.58 5.36Q8.72 4.57 8.95 3.91L8.95 3.91Q9.42 2.65 10.05 2.05Q10.69 1.45 11.16 1.43L11.16 1.43Q11.48 1.43 11.63 1.71Q11.77 1.99 11.74 2.46L11.74 2.46Q11.70 3.07 11.53 3.93Q11.37 4.78 11.14 5.75Q10.92 6.73 10.64 7.72Q10.36 8.72 10.10 9.63L10.10 9.63Q9.68 12.05 9.59 14.00Q9.49 15.96 9.62 17.36Q9.75 18.75 10.07 19.51Q10.38 20.27 10.83 20.27L10.83 20.27Q11.34 20.27 11.92 19.57Q12.49 18.87 13.05 17.71Q13.62 16.55 14.14 15.07Q14.67 13.59 15.11 12.04Q15.54 10.48 15.82 8.96Q16.10 7.45 16.20 6.23L16.20 6.23Q16.27 5.23 16.27 4.24L16.27 4.24Q16.27 3.40 16.20 2.44Q16.13 1.48 15.94 0.70L15.94 0.70Q16.24 0.45 16.76 0.28L16.76 0.28Q17.02 0.19 17.32 0.12L17.32 0.12Q17.51 0.07 17.72 0.05L17.72 0.05Q17.91 0.02 18.09 0.01Q18.28 0 18.45 0.05L18.45 0.05Q18.59 0.38 18.64 0.89Q18.70 1.41 18.73 1.90L18.73 1.90Q18.75 2.48 18.70 3.12L18.70 3.12Q18.52 5.60 18.06 7.99Q17.60 10.38 16.95 12.53Q16.29 14.67 15.48 16.46Q14.67 18.26 13.82 19.57Q12.96 20.88 12.11 21.61Q11.25 22.34 10.48 22.34L10.48 22.34Q9.66 22.34 9.16 21.64Q8.67 20.95 8.41 19.91Q8.16 18.87 8.09 17.67Q8.02 16.48 8.04 15.47L8.04 15.47Q7.50 16.78 6.88 18Q6.26 19.22 5.59 20.17Q4.92 21.12 4.23 21.69Q3.54 22.27 2.86 22.27ZM26.04 14.06L26.04 14.06Q25.80 14.95 25.41 15.73Q25.01 16.50 24.46 17.06Q23.91 17.63 23.21 17.94Q22.52 18.26 21.70 18.26L21.70 18.26Q20.74 18.26 20.19 17.85Q19.64 17.44 19.37 16.83Q19.10 16.22 19.04 15.49Q18.98 14.77 18.98 14.13L18.98 14.13Q18.98 13.69 19.09 13.15Q19.20 12.61 19.38 12.05Q19.57 11.48 19.86 10.92Q20.16 10.36 20.55 9.89L20.55 9.89Q20.70 9.49 20.99 9.19Q21.28 8.88 21.67 8.68Q22.05 8.48 22.50 8.38Q22.95 8.27 23.37 8.27L23.37 8.27Q23.44 8.27 23.50 8.30Q23.55 8.32 23.63 8.34L23.63 8.34Q23.93 8.37 24.39 8.58Q24.84 8.79 25.28 9.21Q25.71 9.63 26.02 10.28Q26.32 10.92 26.32 11.84L26.32 11.84Q26.32 12.02 26.30 12.29Q26.27 12.56 26.25 12.75L26.25 12.75Q26.79 12.54 27.38 12.23Q27.96 11.93 28.51 11.59Q29.06 11.25 29.53 10.90Q30 10.55 30.28 10.27L30.28 10.27Q30.52 10.05 30.68 10.03Q30.84 10.01 30.91 10.13Q30.98 10.24 30.94 10.45Q30.89 10.66 30.68 10.92L30.68 10.92Q30.56 11.06 30.08 11.48Q29.60 11.91 28.95 12.40Q28.29 12.89 27.52 13.36Q26.74 13.83 26.04 14.06ZM22.08 10.50L22.08 10.50Q22.01 10.71 22.01 10.95L22.01 10.95Q22.01 11.32 22.05 11.73Q22.10 12.14 22.29 12.47Q22.48 12.80 22.89 13.02Q23.30 13.24 24.02 13.24L24.02 13.24Q24.14 13.24 24.26 13.23Q24.38 13.22 24.49 13.20L24.49 13.20Q24.56 12.89 24.62 12.64Q24.68 12.40 24.68 12.21L24.68 12.21Q24.73 11.77 24.68 11.30Q24.63 10.83 24.50 10.44Q24.38 10.05 24.18 9.81Q23.98 9.56 23.70 9.56L23.70 9.56Q23.25 9.56 22.84 9.81Q22.43 10.05 22.08 10.50ZM20.58 14.63L20.58 14.63Q20.58 15.05 20.63 15.46Q20.67 15.87 20.81 16.18Q20.95 16.50 21.19 16.70Q21.42 16.90 21.80 16.90L21.80 16.90Q22.22 16.90 22.57 16.70Q22.92 16.50 23.20 16.18Q23.48 15.87 23.71 15.46Q23.93 15.05 24.09 14.60L24.09 14.60Q23.93 14.63 23.78 14.64Q23.63 14.65 23.44 14.65L23.44 14.65Q22.55 14.65 21.90 14.12Q21.26 13.59 20.91 12.77L20.91 12.77Q20.77 13.27 20.67 13.73Q20.58 14.20 20.58 14.63ZM27.66 17.67L27.66 17.67Q27.49 17.93 27.29 18.01Q27.09 18.09 26.94 18.04Q26.79 17.98 26.74 17.79Q26.70 17.60 26.84 17.32L26.84 17.32Q26.91 17.18 27.15 16.69Q27.40 16.20 27.74 15.50Q28.08 14.81 28.48 14.00Q28.88 13.20 29.24 12.47Q29.60 11.74 29.91 11.17Q30.21 10.59 30.35 10.34L30.35 10.34Q30.09 10.10 30 10.00Q29.91 9.89 29.86 9.54L29.86 9.54Q29.81 9.23 30 8.74Q30.19 8.25 30.49 7.79Q30.80 7.34 31.17 7.01Q31.55 6.68 31.90 6.68L31.90 6.68Q32.55 6.68 32.82 7.10Q33.09 7.52 33.14 7.97L33.14 7.97Q33.19 8.27 33.09 8.74Q33 9.21 32.74 9.59L32.74 9.59Q32.81 9.63 32.93 9.69Q33.05 9.75 33.30 9.75L33.30 9.75Q33.68 9.75 33.83 9.70Q33.98 9.66 34.31 9.66L34.31 9.66Q34.71 9.66 34.97 9.86Q35.23 10.05 35.39 10.35Q35.55 10.64 35.64 10.98Q35.72 11.32 35.74 11.60L35.74 11.60Q35.81 12.19 35.44 12.82Q35.06 13.45 34.52 14.20L34.52 14.20Q34.20 14.67 33.87 15.26Q33.54 15.84 33.59 16.31L33.59 16.31Q33.63 16.62 33.75 16.80Q33.87 16.99 34.41 16.99L34.41 16.99Q34.80 16.99 35.29 16.70Q35.77 16.41 36.27 15.95Q36.77 15.49 37.27 14.94Q37.76 14.39 38.18 13.86Q38.60 13.34 38.89 12.91Q39.19 12.49 39.33 12.30L39.33 12.30Q39.45 12.12 39.63 12.05Q39.82 11.98 39.96 12.05Q40.10 12.12 40.14 12.33Q40.17 12.54 39.96 12.89L39.96 12.89Q39.82 13.13 39.48 13.64Q39.14 14.16 38.66 14.79Q38.18 15.42 37.59 16.09Q37.01 16.76 36.36 17.31Q35.72 17.86 35.07 18.21Q34.43 18.56 33.84 18.56L33.84 18.56Q33.23 18.56 32.84 18.33Q32.44 18.09 32.19 17.75Q31.95 17.41 31.84 17.00Q31.73 16.59 31.76 16.24L31.76 16.24Q31.78 15.96 31.91 15.64Q32.04 15.33 32.21 14.99Q32.39 14.65 32.59 14.31Q32.79 13.97 32.95 13.64L32.95 13.64Q33.35 12.96 33.60 12.48Q33.84 12 33.84 11.67L33.84 11.67Q33.84 11.46 33.75 11.30Q33.66 11.13 33.45 11.13L33.45 11.13Q33.30 11.13 33.25 11.14Q33.19 11.16 33.13 11.16Q33.07 11.16 32.96 11.17Q32.86 11.18 32.65 11.18L32.65 11.18Q32.34 11.18 32.13 11.09Q31.92 10.99 31.73 10.95L31.73 10.95Q31.64 11.11 31.31 11.65Q30.98 12.19 30.55 12.91Q30.12 13.64 29.64 14.44Q29.16 15.23 28.73 15.93Q28.31 16.62 28.02 17.10Q27.73 17.58 27.66 17.67ZM45.75 13.31L45.75 13.31Q45.63 14.04 45.53 14.70Q45.42 15.35 45.40 15.75L45.40 15.75Q45.38 16.34 45.61 16.59Q45.84 16.85 46.13 16.85L46.13 16.85Q46.45 16.85 46.93 16.52Q47.41 16.20 47.95 15.70Q48.49 15.21 49.03 14.63Q49.57 14.04 50.03 13.51Q50.48 12.98 50.80 12.59Q51.12 12.19 51.23 12.07L51.23 12.07Q51.38 11.93 51.53 11.91Q51.68 11.88 51.77 11.95Q51.87 12.02 51.87 12.21Q51.87 12.40 51.68 12.68L51.68 12.68Q51.40 13.13 50.95 13.72Q50.51 14.32 49.97 14.95Q49.43 15.59 48.83 16.20Q48.23 16.80 47.64 17.27Q47.04 17.74 46.49 18.04Q45.94 18.33 45.49 18.33L45.49 18.33Q45.16 18.33 44.87 18.14Q44.58 17.95 44.34 17.65Q44.11 17.34 43.98 16.97Q43.85 16.59 43.88 16.22L43.88 16.22Q43.90 16.05 43.95 15.66L43.95 15.66Q42.96 16.76 41.96 17.40Q40.97 18.05 40.05 18.05L40.05 18.05Q39.73 18.05 39.35 17.88Q38.98 17.72 38.68 17.34Q38.39 16.97 38.20 16.36Q38.02 15.75 38.06 14.88L38.06 14.88Q38.13 13.52 38.60 12.30Q39.07 11.09 39.79 10.18Q40.50 9.28 41.40 8.75Q42.30 8.23 43.22 8.23L43.22 8.23Q43.62 8.23 43.95 8.43Q44.27 8.63 44.51 8.94Q44.74 9.26 44.89 9.63Q45.05 10.01 45.12 10.34L45.12 10.34Q45.28 9.66 45.42 9Q45.56 8.34 45.70 7.76L45.70 7.76Q45.94 6.89 46.20 5.88L46.20 5.88Q46.43 5.02 46.73 3.89Q47.04 2.77 47.41 1.52L47.41 1.52Q47.65 1.34 47.86 1.24Q48.07 1.15 48.26 1.10L48.26 1.10Q48.47 1.03 48.66 1.03L48.66 1.03Q48.89 1.03 49.08 1.09Q49.27 1.15 49.39 1.39Q49.52 1.64 49.57 2.13Q49.62 2.63 49.57 3.47L49.57 3.47Q49.52 4.50 49.21 5.72Q48.89 6.94 48.38 8.24Q47.86 9.54 47.19 10.84Q46.52 12.14 45.75 13.31ZM44.37 13.62L44.37 13.62Q44.46 13.17 44.54 12.73Q44.63 12.28 44.74 11.81L44.74 11.81Q44.70 11.84 44.66 11.86Q44.63 11.88 44.58 11.91L44.58 11.91Q44.32 12.02 44.23 11.89Q44.13 11.77 44.13 11.48L44.13 11.48Q44.13 11.34 44.11 10.98Q44.09 10.62 43.98 10.23Q43.88 9.84 43.66 9.55Q43.45 9.26 43.08 9.26L43.08 9.26Q42.54 9.26 41.98 9.81Q41.41 10.36 40.92 11.14Q40.43 11.93 40.10 12.82Q39.77 13.71 39.73 14.41L39.73 14.41Q39.68 15.54 40.01 16.03Q40.34 16.52 40.90 16.52L40.90 16.52Q41.32 16.52 41.82 16.20Q42.33 15.87 42.81 15.40Q43.29 14.93 43.70 14.44Q44.11 13.95 44.37 13.62ZM56.06 9.16L56.06 9.16Q56.37 8.93 56.66 8.80Q56.95 8.67 57.19 8.63L57.19 8.63Q57.45 8.55 57.70 8.58L57.70 8.58Q58.34 8.63 58.49 8.98Q58.64 9.33 58.52 10.10L58.52 10.10Q58.45 10.50 58.24 11.11Q58.03 11.72 57.75 12.60Q57.47 13.48 57.15 14.60Q56.84 15.73 56.55 17.13L56.55 17.13Q56.27 18.28 55.95 19.78L55.95 19.78Q55.66 21.09 55.28 22.95Q54.89 24.80 54.45 27.19L54.45 27.19Q54.33 27.77 53.94 27.87Q53.55 27.96 53.13 27.77L53.13 27.77Q52.97 27.68 52.83 27.56L52.83 27.56Q52.71 27.45 52.57 27.29Q52.43 27.14 52.34 26.88L52.34 26.88Q52.88 24.91 53.29 23.30Q53.70 21.68 54.02 20.48L54.02 20.48Q54.38 19.10 54.68 18L54.68 18Q54.80 17.51 54.90 17.03Q55.01 16.55 55.13 16.08L55.13 16.08Q54.82 16.57 54.47 17.02Q54.12 17.46 53.70 17.79Q53.27 18.12 52.79 18.29Q52.31 18.47 51.80 18.40L51.80 18.40Q50.53 18.23 50.00 17.46Q49.48 16.69 49.55 15.45L49.55 15.45Q49.57 14.95 49.69 14.37Q49.80 13.78 49.95 13.24Q50.09 12.70 50.21 12.27Q50.34 11.84 50.41 11.65L50.41 11.65Q50.70 10.76 50.82 10.13Q50.95 9.49 50.63 9.07L50.63 9.07Q50.95 8.86 51.25 8.78Q51.54 8.70 51.77 8.65L51.77 8.65Q52.03 8.63 52.29 8.65L52.29 8.65Q52.92 8.74 53.03 9.12Q53.13 9.49 52.95 10.24L52.95 10.24Q52.85 10.64 52.64 11.26Q52.43 11.88 52.20 12.54Q51.96 13.20 51.77 13.75Q51.59 14.30 51.56 14.53L51.56 14.53Q51.35 15.59 51.54 16.16Q51.73 16.73 52.36 16.73L52.36 16.73Q52.66 16.73 53.04 16.46Q53.41 16.20 53.80 15.75Q54.19 15.30 54.56 14.73Q54.94 14.16 55.25 13.57Q55.57 12.98 55.82 12.42Q56.06 11.86 56.18 11.41L56.18 11.41Q56.34 10.55 56.39 10.05Q56.44 9.56 56.06 9.16Z" transform="translate(51, 0.556)"></path></svg>